<?xml version="1.0" encoding="utf-8"?>
<!-- Generator: Adobe Illustrator 24.3.0, SVG Export Plug-In . SVG Version: 6.00 Build 0)  -->
<svg version="1.1" id="Capa_1" xmlns="http://www.w3.org/2000/svg" xmlns:xlink="http://www.w3.org/1999/xlink" x="0px" y="0px"
	 viewBox="0 0 400 300" style="enable-background:new 0 0 400 300;" xml:space="preserve">
<g>
	<polygon points="116.32,53.46 90.28,57.45 78.82,81.16 66.97,57.64 40.87,54.06 59.59,35.52 54.93,9.6 78.34,21.67 101.56,9.23 
		97.31,35.22 	"/>
</g>
<polygon points="70.59,101.58 67.19,111.34 73.31,119.67 62.98,119.46 56.95,127.85 53.96,117.96 44.11,114.82 52.59,108.92 
	52.54,98.58 60.78,104.82 "/>
<polygon points="215.64,86.22 187.12,88.66 172.95,113.53 161.82,87.16 133.79,81.37 155.43,62.64 152.27,34.19 176.77,48.98 
	202.86,37.18 196.36,65.06 "/>
<polygon points="167.17,189.98 129.38,187.17 105.64,216.72 96.62,179.91 61.19,166.46 93.41,146.51 95.25,108.65 124.18,133.14 
	160.75,123.19 146.41,158.27 "/>
<polygon points="353.86,79.4 325.01,80.75 309.77,105.29 299.57,78.27 271.52,71.36 294.07,53.3 291.97,24.5 316.11,40.36 
	342.86,29.46 335.24,57.32 "/>
<polygon points="293.8,204.31 281.78,178.17 253.44,173.24 274.59,153.74 270.52,125.25 295.6,139.34 321.43,126.67 315.78,154.88 
	335.82,175.53 307.24,178.87 "/>
<polygon points="232.02,213.53 209.45,210.58 194.22,227.5 190.05,205.12 169.24,195.87 189.24,184.99 191.61,162.34 208.14,178 
	230.41,173.25 220.63,193.81 "/>
<polygon points="193.11,263.01 172.96,269.62 166.98,289.96 154.47,272.84 133.27,273.43 145.69,256.24 138.58,236.27 
	158.76,242.77 175.56,229.83 175.61,251.04 "/>
<polygon points="338.16,248.68 339.56,237.49 331.13,230 342.2,227.87 346.72,217.54 352.17,227.41 363.39,228.52 355.69,236.75 
	358.1,247.76 347.89,242.98 "/>
<polygon points="262.74,259.6 266.93,248.2 259.92,238.28 272.06,238.75 279.32,229.01 282.63,240.7 294.14,244.6 284.04,251.36 
	283.89,263.51 274.34,255.99 "/>
<polygon points="62.4,253.46 43.51,245.04 25.86,255.83 28.03,235.26 12.32,221.81 32.55,217.52 40.49,198.42 50.82,216.34 
	71.43,217.98 57.59,233.34 "/>
<polygon points="229.29,111.82 226.06,110.96 223.51,113.13 223.34,109.79 220.48,108.04 223.6,106.84 224.38,103.59 226.49,106.18 
	229.83,105.92 228.01,108.73 "/>
<polygon points="261.37,49.7 258.57,49.08 256.47,51.04 256.19,48.19 253.68,46.8 256.31,45.65 256.86,42.83 258.76,44.98 
	261.61,44.63 260.16,47.1 "/>
<polygon points="375.71,30.59 374.06,32.07 374.36,34.27 372.44,33.17 370.44,34.12 370.9,31.95 369.37,30.35 371.57,30.12 
	372.63,28.17 373.53,30.19 "/>
<polygon points="137.48,16.26 133.71,14.59 130.21,16.76 130.62,12.66 127.48,9.99 131.51,9.12 133.07,5.31 135.15,8.87 
	139.25,9.18 136.51,12.25 "/>
<polygon points="362.74,148 356.39,142.24 348.05,144.21 351.56,136.4 347.12,129.08 355.63,130 361.22,123.51 362.97,131.89 
	370.87,135.2 363.44,139.46 "/>
<polygon points="199.94,139.81 189.93,140.44 184.79,149.05 181.09,139.73 171.31,137.5 179.03,131.1 178.14,121.11 186.61,126.47 
	195.83,122.54 193.34,132.25 "/>
<polygon points="105.06,79.4 104.31,79.47 103.95,80.13 103.65,79.44 102.91,79.3 103.47,78.8 103.38,78.06 104.02,78.44 
	104.7,78.12 104.54,78.85 "/>
<polygon points="27.24,66.43 25.64,65.79 24.21,66.75 24.31,65.03 22.96,63.97 24.63,63.54 25.22,61.92 26.15,63.37 27.87,63.44 
	26.77,64.77 "/>
<polygon points="28.27,146.29 24.46,146.47 22.45,149.72 21.1,146.15 17.39,145.24 20.37,142.85 20.09,139.05 23.28,141.14 
	26.81,139.7 25.8,143.38 "/>
<polygon points="84.24,272.57 77.11,270.48 71.35,275.17 71.13,267.75 64.89,263.72 71.88,261.22 73.78,254.03 78.33,259.91 
	85.75,259.5 81.56,265.64 "/>
<polygon points="232.7,253.46 228.15,252.03 224.39,254.98 224.34,250.21 220.38,247.55 224.9,246.02 226.2,241.43 229.05,245.26 
	233.82,245.08 231.06,248.98 "/>
<polygon points="250.11,201.24 249.82,201.57 249.94,202 249.53,201.83 249.16,202.07 249.2,201.63 248.85,201.35 249.28,201.25 
	249.44,200.84 249.67,201.22 "/>
<polygon points="239.87,144.24 237.8,142.86 235.49,143.78 236.17,141.39 234.58,139.48 237.06,139.38 238.39,137.28 239.25,139.61 
	241.66,140.22 239.71,141.76 "/>
<polygon points="289.02,103.97 287.38,104.43 286.83,106.04 285.89,104.62 284.19,104.6 285.24,103.27 284.74,101.64 286.33,102.23 
	287.72,101.25 287.66,102.95 "/>
<polygon points="209.49,13.87 208.35,13.79 207.64,14.69 207.36,13.58 206.28,13.18 207.25,12.57 207.3,11.42 208.18,12.16 
	209.29,11.85 208.86,12.91 "/>
<polygon points="329.97,271.2 325.03,270.9 321.98,274.8 320.74,270.01 316.09,268.31 320.26,265.65 320.44,260.7 324.26,263.85 
	329.02,262.49 327.21,267.1 "/>
<polygon style="fill:#3636CE;" points="366.15,191.68 359.93,189.8 354.85,193.87 354.72,187.37 349.29,183.8 355.42,181.66 
	357.14,175.39 361.07,180.57 367.57,180.26 363.86,185.6 "/>
<polygon style="fill:#3636CE;" points="44.65,84.86 41.34,83.63 38.46,85.66 38.6,82.14 35.78,80.02 39.18,79.07 40.32,75.74 
	42.27,78.67 45.8,78.72 43.61,81.49 "/>
<polygon style="fill:#3636CE;" points="25.88,14.89 20.77,17.12 19.72,22.59 16.02,18.42 10.49,19.11 13.31,14.3 10.95,9.26 
	16.39,10.46 20.46,6.65 21,12.2 "/>
<polygon style="fill:#3636CE;" points="261.37,106.36 258.98,103.57 255.33,103.96 257.24,100.82 255.74,97.47 259.31,98.32 
	262.04,95.86 262.34,99.52 265.52,101.35 262.13,102.76 "/>
<polygon style="fill:#3636CE;" points="387.99,104.65 382.91,102.6 378.35,105.63 378.73,100.16 374.44,96.75 379.75,95.42 
	381.67,90.29 384.58,94.94 390.05,95.18 386.53,99.37 "/>
<polygon style="fill:#3636CE;" points="244.31,30.59 236.09,28.65 229.84,34.33 229.14,25.91 221.81,21.72 229.6,18.45 
	231.32,10.19 236.83,16.59 245.23,15.67 240.84,22.89 "/>
<polygon style="fill:#3636CE;" points="155.57,219.33 149.34,220.31 146.61,226 143.75,220.38 137.5,219.54 141.97,215.09 
	140.82,208.88 146.44,211.75 151.99,208.75 151,214.98 "/>
<polygon style="fill:#3636CE;" points="120.42,257.21 108.7,252.84 98.45,260.02 98.98,247.52 88.99,240 101.04,236.64 
	105.11,224.82 112.02,235.24 124.53,235.45 116.75,245.25 "/>
<polygon style="fill:#3636CE;" points="36.12,170.52 33.96,171.57 33.6,173.95 31.93,172.22 29.56,172.61 30.69,170.49 
	29.59,168.36 31.95,168.78 33.64,167.07 33.97,169.45 "/>
<polygon style="fill:#3636CE;" points="258.3,281.78 254.03,281.09 251.04,284.21 250.38,279.94 246.49,278.05 250.35,276.11 
	250.94,271.82 253.98,274.89 258.24,274.13 256.26,277.97 "/>
<polygon style="fill:#3636CE;" points="384.58,284.86 373.46,280.45 363.53,287.12 364.28,275.18 354.88,267.79 366.46,264.82 
	370.58,253.59 376.98,263.69 388.94,264.14 381.31,273.35 "/>
</svg>
